<?xml version="1.0" encoding="UTF-8" standalone="no"?>
<svg
   id="Layer_1"
   data-name="Layer 1"
   viewBox="0 0 200 200"
   version="1.1"
   sodipodi:docname="corerouter.svg"
   inkscape:version="1.2.2 (732a01da63, 2022-12-09)"
   xmlns:inkscape="http://www.inkscape.org/namespaces/inkscape"
   xmlns:sodipodi="http://sodipodi.sourceforge.net/DTD/sodipodi-0.dtd"
   xmlns="http://www.w3.org/2000/svg"
   xmlns:svg="http://www.w3.org/2000/svg">
  <sodipodi:namedview
     id="namedview3317"
     pagecolor="#ffffff"
     bordercolor="#666666"
     borderopacity="1.0"
     inkscape:showpageshadow="2"
     inkscape:pageopacity="0.0"
     inkscape:pagecheckerboard="0"
     inkscape:deskcolor="#d1d1d1"
     showgrid="false"
     inkscape:zoom="5.135"
     inkscape:cx="99.318403"
     inkscape:cy="99.902629"
     inkscape:window-width="2560"
     inkscape:window-height="1369"
     inkscape:window-x="-8"
     inkscape:window-y="-8"
     inkscape:window-maximized="1"
     inkscape:current-layer="Layer_1" />
  <defs
     id="defs3308">
    <style
       id="style3306">.cls-1{fill:none;stroke:#1a7d71;stroke-miterlimit:10;stroke-width:4px}</style>
  </defs>
  <path
     class="cls-1"
     d="M58.78 142.74h7.59M58.78 147.89h7.59M43.78 140.5a11.57 11.57 0 017.87-2.82h7.13v15.93h-7.13"
     id="path3310" />
  <path
     class="cls-1"
     d="M31.94 120.79V41.88A13.42 13.42 0 0145.32 28.5h109.36a13.42 13.42 0 0113.38 13.38v116.24a13.42 13.42 0 01-13.38 13.38H45.32a13.42 13.42 0 01-13.38-13.38v-12.29h8.29s2.91 7.82 11.42 7.82"
     id="path3312" />
  <path
     d="M 146.74,78.59 H 53.26 c -4.555039,0.01645 -8.243546,3.704961 -8.26,8.26 v 21 c 0.011,4.55731 3.70269,8.24901 8.26,8.26 h 8.44 v 0.07 c 0,2.87188 2.328119,5.2 5.2,5.2 2.871881,0 5.2,-2.32812 5.2,-5.2 v -0.07 h 50.42 v 0.07 c -0.12995,2.96411 2.23804,5.4382 5.205,5.4382 2.96696,0 5.33495,-2.47409 5.205,-5.4382 v -0.07 h 13.81 c 4.55731,-0.011 8.24901,-3.70269 8.26,-8.26 v -21 c -0.0164,-4.555039 -3.70496,-8.243546 -8.26,-8.26 z"
     stroke-width="2.52"
     fill="none"
     stroke="#1a7d71"
     stroke-miterlimit="10"
     id="path3314"
     sodipodi:nodetypes="ccccccssscccscccccc" />
  <g
     id="g3968"
     transform="translate(27.263875,35.053554)">
    <rect
       style="fill:#000000;fill-opacity:0;stroke:#1a7d71;stroke-width:2;stroke-linecap:round;stroke-linejoin:bevel;stroke-dasharray:none"
       id="rect3900"
       width="8"
       height="8"
       x="61"
       y="51" />
    <rect
       style="fill:#000000;fill-opacity:0;stroke:#1a7d71;stroke-width:2;stroke-linecap:round;stroke-linejoin:bevel;stroke-dasharray:none"
       id="rect3900-3"
       width="8"
       height="8"
       x="97"
       y="51" />
    <rect
       style="fill:#000000;fill-opacity:0;stroke:#1a7d71;stroke-width:2;stroke-linecap:round;stroke-linejoin:bevel;stroke-dasharray:none"
       id="rect3900-7"
       width="8"
       height="8"
       x="85"
       y="51" />
    <rect
       style="fill:#000000;fill-opacity:0;stroke:#1a7d71;stroke-width:2;stroke-linecap:round;stroke-linejoin:bevel;stroke-dasharray:none"
       id="rect3900-77"
       width="8"
       height="8"
       x="73"
       y="51" />
    <rect
       style="fill:#000000;fill-opacity:0;stroke:#1a7d71;stroke-width:2;stroke-linecap:round;stroke-linejoin:bevel;stroke-dasharray:none"
       id="rect3900-9"
       width="8"
       height="8"
       x="109"
       y="51" />
  </g>
</svg>
